<?xml version="1.0" encoding="iso-8859-1"?>
<!-- Generator: Adobe Illustrator 19.0.0, SVG Export Plug-In . SVG Version: 6.00 Build 0)  -->
<svg version="1.1" id="Capa_1" xmlns="http://www.w3.org/2000/svg" xmlns:xlink="http://www.w3.org/1999/xlink" x="0px" y="0px"
	 viewBox="0 0 510.99 510.99" style="enable-background:new 0 0 510.99 510.99;" xml:space="preserve">
<g>
	<path d="M450.362,445.41H264.556v-48.852c0-4.142-3.358-7.5-7.5-7.5s-7.5,3.358-7.5,7.5v48.852H63.751
		c-12.958,0-23.5,10.542-23.5,23.5v15.831c0,4.142,3.358,7.5,7.5,7.5h418.611c4.142,0,7.5-3.358,7.5-7.5V468.91
		C473.862,455.952,463.32,445.41,450.362,445.41z M458.862,477.241H55.251v-8.331c0-4.687,3.813-8.5,8.5-8.5h386.611
		c4.687,0,8.5,3.813,8.5,8.5V477.241z"/>
	<path d="M385.859,195.356h-16.102c-4.142,0-7.5,3.358-7.5,7.5s3.358,7.5,7.5,7.5h16.102c4.142,0,7.5-3.358,7.5-7.5
		S390.001,195.356,385.859,195.356z"/>
	<path d="M510.196,335.29l-12.568-37.706c-1.021-3.062-3.887-5.128-7.115-5.128c-14.923,0-24.245,10.869-31.735,19.603
		c-6.723,7.839-11.193,12.599-16.566,12.599h-0.55v-58.917c2.836,0.631,5.747,0.962,8.685,0.962c1.26,0,2.525-0.06,3.791-0.18
		c20.089-1.916,35.826-19.881,35.826-40.9v-9.314c0-11.176-6.638-21.242-16.91-25.645L298.29,115.765
		c-10.772-4.616-22.195-7.331-33.733-8.152V82.05h81.052c3.034,0,5.768-1.827,6.929-4.63c1.161-2.803,0.519-6.028-1.626-8.173
		L332.064,50.4l18.847-18.847c2.145-2.145,2.787-5.371,1.626-8.173c-1.161-2.803-3.896-4.63-6.929-4.63h-88.552
		c-4.142,0-7.5,3.358-7.5,7.5v81.364c-11.538,0.821-22.961,3.536-33.733,8.152L41.061,190.663
		c-10.272,4.403-16.91,14.469-16.91,25.645v9.314c0,21.019,15.737,38.984,35.826,40.9c4.214,0.402,8.423,0.125,12.475-0.776v58.911
		H47.751h-24.15C10.587,324.657,0,335.244,0,348.257v32.201c0,4.142,3.358,7.5,7.5,7.5s7.5-3.358,7.5-7.5v-32.201
		c0-4.742,3.858-8.6,8.601-8.6h2.179c-1.048,2.667-1.63,5.566-1.63,8.6v64.402c0,4.142,3.358,7.5,7.5,7.5s7.5-3.358,7.5-7.5
		c0-22.498,18.303-40.801,40.801-40.801s40.801,18.303,40.801,40.801c0,4.142,3.358,7.5,7.5,7.5s7.5-3.358,7.5-7.5
		c0-1.995-0.11-3.964-0.315-5.906c0.203-0.68,0.315-1.399,0.315-2.145v-48.852h5.482c4.985,0,9.701-2.414,12.615-6.458
		c2.915-4.043,3.713-9.281,2.137-14.009l-12.568-37.706c-1.021-3.062-3.887-5.128-7.115-5.128
		c-14.923,0-24.245,10.869-31.735,19.603c-6.723,7.839-11.193,12.599-16.566,12.599h-0.55v-64.952c0-0.253-0.013-0.504-0.038-0.751
		c1.085-0.799,2.133-1.653,3.137-2.566c2.064-1.876,3.908-3.952,5.513-6.185c7.218,9.987,18.953,16.504,32.189,16.504
		c13.243,0,24.984-6.524,32.201-16.521c7.217,9.997,18.958,16.521,32.201,16.521s24.984-6.524,32.201-16.521
		c5.84,8.091,14.645,13.899,24.813,15.821c-0.068,0.407-0.112,0.823-0.112,1.25v57.4h-24.701h-24.15
		c-13.013,0-23.601,10.587-23.601,23.6v32.201c0,4.142,3.358,7.5,7.5,7.5s7.5-3.358,7.5-7.5v-32.201c0-4.742,3.858-8.6,8.601-8.6
		h2.179c-1.048,2.667-1.63,5.566-1.63,8.6v64.402c0,4.142,3.358,7.5,7.5,7.5s7.5-3.358,7.5-7.5
		c0-22.498,18.303-40.801,40.801-40.801s40.801,18.303,40.801,40.801c0,4.142,3.358,7.5,7.5,7.5s7.5-3.358,7.5-7.5
		c0-1.995-0.11-3.964-0.315-5.906c0.203-0.68,0.315-1.399,0.315-2.145v-48.852h5.482c4.985,0,9.701-2.414,12.615-6.458
		c2.915-4.043,3.713-9.281,2.137-14.009l-12.568-37.706c-1.021-3.062-3.887-5.128-7.115-5.128
		c-14.923,0-24.245,10.869-31.735,19.603c-6.723,7.839-11.193,12.599-16.566,12.599h-0.55v-57.4c0-0.427-0.044-0.843-0.112-1.25
		c10.168-1.922,18.973-7.73,24.813-15.821c7.216,9.997,18.957,16.521,32.201,16.521c13.243,0,24.984-6.524,32.201-16.521
		c7.216,9.996,18.958,16.521,32.201,16.521c13.236,0,24.972-6.517,32.189-16.504c1.605,2.233,3.449,4.309,5.513,6.185
		c1.004,0.912,2.053,1.763,3.137,2.561c-0.025,0.249-0.038,0.501-0.038,0.756v64.952H401.96h-24.15
		c-13.013,0-23.601,10.587-23.601,23.6v32.201c0,4.142,3.358,7.5,7.5,7.5s7.5-3.358,7.5-7.5v-32.201c0-4.742,3.858-8.6,8.601-8.6
		h2.179c-1.048,2.667-1.63,5.566-1.63,8.6v64.402c0,4.142,3.358,7.5,7.5,7.5s7.5-3.358,7.5-7.5
		c0-22.498,18.303-40.801,40.801-40.801s40.801,18.303,40.801,40.801c0,4.142,3.358,7.5,7.5,7.5s7.5-3.358,7.5-7.5
		c0-1.995-0.11-3.964-0.315-5.906c0.203-0.68,0.315-1.399,0.315-2.145v-48.852h5.482c4.985,0,9.701-2.414,12.615-6.458
		C510.973,345.256,511.772,340.018,510.196,335.29z M115.955,321.824c5.812-6.777,10.205-11.537,15.251-13.442l10.55,31.652
		c0.027,0.08,0.089,0.267-0.075,0.495c-0.165,0.229-0.362,0.229-0.446,0.229h-12.982c-4.142,0-7.5,3.358-7.5,7.5v26.391
		c-10.194-10.935-24.708-17.791-40.801-17.791s-30.608,6.856-40.801,17.791v-26.391c0-4.742,3.858-8.6,8.601-8.6h40.251
		C100.66,339.657,108.785,330.183,115.955,321.824z M293.059,321.824c5.812-6.777,10.205-11.537,15.251-13.442l10.55,31.652
		c0.027,0.08,0.089,0.267-0.075,0.495c-0.165,0.229-0.362,0.229-0.446,0.229h-12.982c-4.142,0-7.5,3.358-7.5,7.5v26.391
		c-10.194-10.935-24.708-17.791-40.801-17.791s-30.608,6.856-40.801,17.791v-26.391c0-4.742,3.858-8.6,8.601-8.6h40.251
		C277.764,339.657,285.89,330.183,293.059,321.824z M316.155,55.703l11.347,11.347h-62.946V33.749h62.946l-11.347,11.347
		C313.226,48.025,313.226,52.774,316.155,55.703z M418.061,219.506c-4.142,0-7.5,3.358-7.5,7.5c0,13.62-11.081,24.701-24.701,24.701
		s-24.701-11.081-24.701-24.701c0-4.142-3.358-7.5-7.5-7.5s-7.5,3.358-7.5,7.5c0,13.62-11.081,24.701-24.701,24.701
		s-24.701-11.081-24.701-24.701c0-4.142-3.358-7.5-7.5-7.5s-7.5,3.358-7.5,7.5c0,13.62-11.081,24.701-24.701,24.701
		s-24.701-11.081-24.701-24.701c0-4.142-3.358-7.5-7.5-7.5s-7.5,3.358-7.5,7.5c0,13.62-11.081,24.701-24.701,24.701
		s-24.701-11.081-24.701-24.701c0-4.142-3.358-7.5-7.5-7.5s-7.5,3.358-7.5,7.5c0,13.62-11.081,24.701-24.701,24.701
		s-24.701-11.081-24.701-24.701c0-4.142-3.358-7.5-7.5-7.5s-7.5,3.358-7.5,7.5c0,6.944-2.949,13.608-8.091,18.283
		c-5.211,4.738-11.985,6.974-19.061,6.3c-12.477-1.189-22.25-12.596-22.25-25.968v-9.314c0-2.12,0.524-4.15,1.461-5.952h296.944
		c4.142,0,7.5-3.358,7.5-7.5s-3.358-7.5-7.5-7.5H68.19l153.543-65.804c22.448-9.621,48.2-9.621,70.648,0l153.543,65.804h-27.862
		c-4.142,0-7.5,3.358-7.5,7.5s3.358,7.5,7.5,7.5h55.439c0.937,1.802,1.461,3.832,1.461,5.952v9.314
		c0,13.372-9.773,24.778-22.25,25.968c-7.083,0.673-13.849-1.563-19.061-6.3c-5.142-4.675-8.091-11.339-8.091-18.283
		C425.561,222.864,422.203,219.506,418.061,219.506z M495.89,340.529c-0.165,0.229-0.362,0.229-0.446,0.229h-12.982
		c-4.142,0-7.5,3.358-7.5,7.5v26.391c-10.194-10.935-24.708-17.791-40.801-17.791s-30.608,6.856-40.801,17.791v-26.391
		c0-4.742,3.858-8.6,8.601-8.6h40.251c12.658,0,20.783-9.475,27.953-17.833c5.812-6.777,10.205-11.537,15.251-13.442l10.55,31.652
		C495.992,340.113,496.055,340.301,495.89,340.529z"/>
</g>
<g>
</g>
<g>
</g>
<g>
</g>
<g>
</g>
<g>
</g>
<g>
</g>
<g>
</g>
<g>
</g>
<g>
</g>
<g>
</g>
<g>
</g>
<g>
</g>
<g>
</g>
<g>
</g>
<g>
</g>
</svg>
