<?xml version="1.0" encoding="UTF-8" standalone="no"?>
<svg
   xmlns:dc="http://purl.org/dc/elements/1.1/"
   xmlns:cc="http://creativecommons.org/ns#"
   xmlns:rdf="http://www.w3.org/1999/02/22-rdf-syntax-ns#"
   xmlns:svg="http://www.w3.org/2000/svg"
   xmlns="http://www.w3.org/2000/svg"
   xmlns:sodipodi="http://sodipodi.sourceforge.net/DTD/sodipodi-0.dtd"
   xmlns:inkscape="http://www.inkscape.org/namespaces/inkscape"
   version="1.1"
   id="Capa_1"
   x="0px"
   y="0px"
   viewBox="0 0 510.99 510.99"
   style="enable-background:new 0 0 510.99 510.99;"
   xml:space="preserve"
   sodipodi:docname="combat-carousel.svg"
   inkscape:version="1.0.1 (3bc2e813f5, 2020-09-07)"><metadata
   id="metadata45"><rdf:RDF><cc:Work
       rdf:about=""><dc:format>image/svg+xml</dc:format><dc:type
         rdf:resource="http://purl.org/dc/dcmitype/StillImage" /><dc:title></dc:title></cc:Work></rdf:RDF></metadata><defs
   id="defs43" /><sodipodi:namedview
   pagecolor="#000000"
   bordercolor="#666666"
   borderopacity="1"
   objecttolerance="10"
   gridtolerance="10"
   guidetolerance="10"
   inkscape:pageopacity="0.48627451"
   inkscape:pageshadow="2"
   inkscape:window-width="1802"
   inkscape:window-height="1051"
   id="namedview41"
   showgrid="false"
   inkscape:pagecheckerboard="false"
   inkscape:zoom="6.8885889"
   inkscape:cx="230.22074"
   inkscape:cy="493.14652"
   inkscape:window-x="109"
   inkscape:window-y="-9"
   inkscape:window-maximized="1"
   inkscape:current-layer="g8" />
<g
   id="g8"
   style="display:inline">
	<path
   d="M 450.362,445.41 H 264.556 c 0,0 -3.93867,-0.027 -8.08067,-0.027 -4.142,0 -6.91933,0.027 -6.91933,0.027 H 63.751 c -12.958,0 -23.5,10.542 -23.5,23.5 v 15.831 c 0,4.142 3.358,7.5 7.5,7.5 h 418.611 c 4.142,0 7.5,-3.358 7.5,-7.5 V 468.91 c 0,-12.958 -10.542,-23.5 -23.5,-23.5 z m 8.5,31.831 H 55.251 v -8.331 c 0,-4.687 3.813,-8.5 8.5,-8.5 h 386.611 c 4.687,0 8.5,3.813 8.5,8.5 z"
   id="path2"
   inkscape:label="base"
   style="fill:#ffffff;fill-opacity:1"
   sodipodi:nodetypes="scscssssssssccssssc" />
	<path
   d="m 385.859,195.356 h -16.102 c -4.142,0 -7.5,3.358 -7.5,7.5 0,4.142 3.358,7.5 7.5,7.5 h 16.102 c 4.142,0 7.5,-3.358 7.5,-7.5 0,-4.142 -3.358,-7.5 -7.5,-7.5 z"
   id="path4"
   style="fill:#ffffff;fill-opacity:1" />
	<path
   d="m 441.662,265.741 c 2.836,0.631 5.747,0.962 8.685,0.962 1.26,0 2.525,-0.06 3.791,-0.18 20.089,-1.916 35.826,-19.881 35.826,-40.9 v -9.314 c 0,-11.176 -6.638,-21.242 -16.91,-25.645 L 298.29,115.765 c -10.772,-4.616 -22.195,-7.331 -33.733,-8.152 V 82.05 h 81.052 c 3.034,0 5.768,-1.827 6.929,-4.63 1.161,-2.803 0.519,-6.028 -1.626,-8.173 L 332.064,50.4 350.911,31.553 c 2.145,-2.145 2.787,-5.371 1.626,-8.173 -1.161,-2.803 -3.896,-4.63 -6.929,-4.63 h -88.552 c -4.142,0 -7.5,3.358 -7.5,7.5 v 81.364 c -11.538,0.821 -22.961,3.536 -33.733,8.152 L 41.061,190.663 c -10.272,4.403 -16.91,14.469 -16.91,25.645 v 9.314 c 0,21.019 15.737,38.984 35.826,40.9 4.214,0.402 8.423,0.125 12.475,-0.776 l 15,-6.041 c 0,-0.253 -0.013,-0.504 -0.038,-0.751 1.085,-0.799 2.133,-1.653 3.137,-2.566 2.064,-1.876 3.908,-3.952 5.513,-6.185 7.218,9.987 18.953,16.504 32.189,16.504 13.243,0 24.984,-6.524 32.201,-16.521 7.217,9.997 18.958,16.521 32.201,16.521 13.243,0 24.984,-6.524 32.201,-16.521 5.84,8.091 14.645,13.899 24.813,15.821 -0.068,0.407 -0.112,0.823 -0.112,1.25 h 15 c 0,-0.427 -0.044,-0.843 -0.112,-1.25 10.168,-1.922 18.973,-7.73 24.813,-15.821 7.216,9.997 18.957,16.521 32.201,16.521 13.243,0 24.984,-6.524 32.201,-16.521 7.216,9.996 18.958,16.521 32.201,16.521 13.236,0 24.972,-6.517 32.189,-16.504 1.605,2.233 3.449,4.309 5.513,6.185 1.004,0.912 2.053,1.763 3.137,2.561 -0.025,0.249 -0.038,0.501 -0.038,0.756 z M 316.155,55.703 327.502,67.05 H 264.556 V 33.749 h 62.946 l -11.347,11.347 c -2.929,2.929 -2.929,7.678 0,10.607 z m 101.906,163.803 c -4.142,0 -7.5,3.358 -7.5,7.5 0,13.62 -11.081,24.701 -24.701,24.701 -13.62,0 -24.701,-11.081 -24.701,-24.701 0,-4.142 -3.358,-7.5 -7.5,-7.5 -4.142,0 -7.5,3.358 -7.5,7.5 0,13.62 -11.081,24.701 -24.701,24.701 -13.62,0 -24.701,-11.081 -24.701,-24.701 0,-4.142 -3.358,-7.5 -7.5,-7.5 -4.142,0 -7.5,3.358 -7.5,7.5 0,13.62 -11.081,24.701 -24.701,24.701 -13.62,0 -24.701,-11.081 -24.701,-24.701 0,-4.142 -3.358,-7.5 -7.5,-7.5 -4.142,0 -7.5,3.358 -7.5,7.5 0,13.62 -11.081,24.701 -24.701,24.701 -13.62,0 -24.701,-11.081 -24.701,-24.701 0,-4.142 -3.358,-7.5 -7.5,-7.5 -4.142,0 -7.5,3.358 -7.5,7.5 0,13.62 -11.081,24.701 -24.701,24.701 -13.62,0 -24.701,-11.081 -24.701,-24.701 0,-4.142 -3.358,-7.5 -7.5,-7.5 -4.142,0 -7.5,3.358 -7.5,7.5 0,6.944 -2.949,13.608 -8.091,18.283 -5.211,4.738 -11.985,6.974 -19.061,6.3 -12.477,-1.189 -22.25,-12.596 -22.25,-25.968 v -9.314 c 0,-2.12 0.524,-4.15 1.461,-5.952 h 296.944 c 4.142,0 7.5,-3.358 7.5,-7.5 0,-4.142 -3.358,-7.5 -7.5,-7.5 H 68.19 l 153.543,-65.804 c 22.448,-9.621 48.2,-9.621 70.648,0 l 153.543,65.804 h -27.862 c -4.142,0 -7.5,3.358 -7.5,7.5 0,4.142 3.358,7.5 7.5,7.5 h 55.439 c 0.937,1.802 1.461,3.832 1.461,5.952 v 9.314 c 0,13.372 -9.773,24.778 -22.25,25.968 -7.083,0.673 -13.849,-1.563 -19.061,-6.3 -5.142,-4.675 -8.091,-11.339 -8.091,-18.283 10e-4,-4.142 -3.357,-7.5 -7.499,-7.5 z"
   id="path6"
   sodipodi:nodetypes="cscssccccssccscssscccssccscccscsccssccscscccscsccccssssssssssssssssssssssssccsscsssccccssscsscccs"
   inkscape:label="carousel"
   style="display:inline;fill:#ffffff;fill-opacity:1" />
<path
   d="m 99.921966,276.28474 c -3.013911,0 -7.558889,2.03705 -12.431498,5.73352 -4.872965,3.69648 -10.080294,8.88395 -14.951483,14.45119 -6.948664,7.94147 -13.211572,16.68394 -17.165114,22.90466 l 17.580674,13.18604 17.455866,4.3638 0.811281,-2.43383 6.054061,2.01826 -5.303422,15.91098 7.949635,19.87408 7.949634,-19.87408 -5.30341,-15.91098 6.05405,-2.01826 0.81092,2.43383 17.45588,-4.3638 17.58103,-13.18604 c -3.95355,-6.22072 -10.21645,-14.96319 -17.16512,-22.90466 -4.8712,-5.56688 -10.07852,-10.75435 -14.95113,-14.45119 -4.87296,-3.69647 -9.41795,-5.73352 -12.431854,-5.73352 z m -32.440328,33.76042 26.947921,15.60143 -3.198292,5.5222 -26.947924,-15.60142 z m 64.880652,0 3.1983,5.52221 -26.94792,15.60142 -3.19829,-5.5222 z m -117.109973,6.5285 c 11.276992,11.69149 22.41393,26.02885 27.054294,39.66202 0.56378,-0.9602 1.198475,-1.89097 1.876426,-2.79479 1.77608,-2.36859 3.913121,-4.59958 6.07746,-6.79123 -3.173469,-4.56838 -4.166994,-10.31395 -4.469455,-15.20643 -10.391961,-8.56022 -19.11742,-13.3651 -30.538725,-14.86957 z m 169.340013,0 c -11.42095,1.50447 -20.14677,6.30935 -30.53873,14.86957 -0.30246,4.89248 -1.29564,10.63805 -4.46945,15.20643 2.16434,2.19165 4.30138,4.42301 6.07746,6.79123 0.67794,0.90418 1.313,1.83459 1.87607,2.79479 4.64072,-13.63317 15.77765,-27.97053 27.05465,-39.66202 z m -132.486253,8.3269 c -0.0082,0.016 -0.01917,0.0355 -0.02768,0.0514 0.04857,5.80656 0.71164,15.63511 4.714113,19.63758 l 2.256536,2.25619 -2.256536,2.25617 c -2.836623,2.83663 -5.58105,5.6041 -7.504286,8.16842 -1.662262,2.21646 -2.597993,4.19217 -2.824205,5.8335 l 28.762644,10.78556 c 1.666514,-2.42779 3.51174,-4.69922 5.419726,-6.60684 l 5.683524,-5.68389 -0.237566,8.03438 c -0.08864,2.98944 -0.135803,5.71969 -0.08226,8.30067 L 96.945272,382.03409 85.280365,352.8736 H 67.203978 l -4.738579,4.73823 -4.512359,-4.51236 4.010985,-4.01134 -4.797791,-20.39249 z m 95.632493,0 -5.06054,3.79505 -4.7978,20.39248 4.01099,4.01134 -4.51237,4.51237 -4.73892,-4.73823 h -18.07639 l -11.66453,29.16049 10.93589,-4.10106 c 0.0532,-2.58062 0.007,-5.31087 -0.0823,-8.29996 l -0.23828,-8.03438 5.68389,5.68389 c 1.90763,1.90762 3.75284,4.17976 5.41936,6.6072 l 19.56987,-7.33869 9.19278,-3.44721 c -0.22622,-1.64171 -1.16195,-3.61669 -2.82421,-5.83352 -1.92323,-2.56431 -4.66766,-5.33179 -7.50428,-8.16841 l -2.25654,-2.25617 2.25654,-2.2562 c 4.00247,-4.00247 4.66553,-13.831 4.7141,-19.63758 -0.009,-0.016 -0.0194,-0.0355 -0.0277,-0.0514 z m -82.612397,9.76543 2.782728,11.82517 h 6.128883 v -7.08269 l -3.880858,-0.97012 z m 69.591587,0 -5.03075,3.77271 -3.88086,0.96941 v 7.08305 h 6.12888 z m -54.297573,6.33808 v 5.48709 h 6.800805 l 1.165493,-3.49507 z m 39.003563,0 -7.9663,1.99202 1.1655,3.49507 h 6.8008 z m -72.968935,22.16467 a 5.7618905,5.7618905 0 0 0 -0.04144,0.44535 c 2.76216,13.26972 12.404912,31.36631 23.425541,45.83131 5.560492,7.29792 11.467051,13.70408 16.871525,18.17957 5.404831,4.47583 10.374947,6.80151 13.211567,6.80151 2.836622,0 7.806742,-2.32568 13.211562,-6.80151 5.40448,-4.47549 11.31103,-10.88165 16.87153,-18.17957 11.02064,-14.465 20.66374,-32.56159 23.42554,-45.83131 -0.008,-0.14538 -0.0223,-0.2943 -0.0415,-0.44535 l -17.02931,25.54485 -36.437842,30.36499 -36.437837,-30.36499 z m 16.224068,12.83146 5.60197,8.40313 1.052392,0.87723 c 0.621574,-1.9179 1.510142,-3.86703 2.54445,-5.83103 z m 74.486167,0 -9.19882,3.44933 c 1.03431,1.964 1.92288,3.91313 2.54447,5.83103 l 1.05237,-0.87723 z m -57.487349,2.74088 c -0.631862,0.97864 -1.233933,1.97075 -1.775016,2.96286 -1.51405,2.77634 -2.544458,5.5729 -2.952924,7.53655 l 6.97454,4.64993 c -1.459441,-5.04635 -2.079238,-9.9452 -2.2466,-15.14934 z m 40.488539,0 c -0.16736,5.20414 -0.78717,10.10299 -2.24661,15.14934 l 6.97454,-4.64993 c -0.40847,-1.96365 -1.43851,-4.76021 -2.95292,-7.53655 -0.54144,-0.99211 -1.14316,-1.98422 -1.77501,-2.96286 z m -6.81748,6.18987 -10.23559,3.83866 v 19.34222 l 2.76322,-2.30298 2.53807,-5.07614 c 2.85081,-5.70196 4.27302,-10.61961 4.9343,-15.80176 z m -26.853594,7.1e-4 c 0.660939,5.18181 2.083505,10.09945 4.934303,15.80105 l 2.538073,5.07614 2.763221,2.30264 v -19.34188 z"
   fill="#ffffff"
   fill-opacity="1"
   id="path893"
   style="fill:#ffffff;fill-opacity:1;stroke-width:0.354578" /><path
   d="m 389.85885,275.17143 c -1.7617,8.92484 1.52902,18.52778 11.33472,28.75894 3.72283,-2.42317 10.50372,-3.63642 16.61981,-2.71235 -15.29023,-7.41577 -22.10436,-15.66585 -27.95453,-26.04659 z m -53.05379,2.07415 c 4.77654,15.44315 17.25137,33.96427 33.37592,47.09392 -11.99619,-0.76451 -26.48202,-5.05242 -36.84281,-8.40962 8.29661,11.70035 21.32988,17.58376 34.34984,22.03787 -8.29993,5.88342 -18.31837,11.86655 -34.38308,12.86375 18.16214,6.382 35.74591,2.95832 43.65694,0.23268 -5.9499,11.60062 -33.47896,22.00463 -40.6554,25.59451 17.70342,1.39607 40.45597,-3.65635 55.51352,-10.93583 3.32396,8.17694 -0.53184,17.68348 -3.3572,25.86043 -0.63156,1.49579 -1.26311,2.95833 -1.89467,4.42087 1.69522,-1.16338 3.3572,-2.32677 4.95271,-3.5234 7.84455,-5.38482 15.88854,-10.60344 19.77758,-19.54491 8.67555,10.37077 20.84126,20.64182 35.56642,28.38665 5.78369,7.34596 9.40681,16.28743 11.36795,24.53085 2.75889,-6.34877 4.58707,-13.36233 3.22424,-20.04349 8.14371,-1.19663 11.83331,-9.87217 11.80007,-18.08236 -4.18819,2.06085 -5.01918,2.09409 -10.37077,2.72564 0,-3.3572 0.19945,-4.15495 -0.99718,-9.53977 -3.42369,2.79213 -6.98032,3.72284 -10.23781,3.92227 0.69803,-2.52621 0.99719,-6.48172 1.22987,-9.07441 -4.32115,2.36 -6.38201,3.22424 -10.00514,3.58988 -0.13295,-3.62313 -0.0333,-6.64794 -1.36282,-10.10486 -9.83893,6.31553 -16.15446,0.49859 -22.60295,-7.08004 6.58145,-5.65073 32.04301,-7.24624 31.61089,2.36002 4.65356,-2.4265 6.24905,-3.72285 7.84455,-5.28511 3.02481,2.82537 4.45412,6.94709 5.01919,10.43725 3.09128,-3.12452 3.42368,-3.49016 5.68398,-7.91103 1.89466,3.3572 2.92508,5.65073 3.55664,10.17132 2.82537,-2.06085 5.11891,-4.35439 6.58145,-7.11328 2.49298,5.15215 2.75889,5.31835 4.12171,10.96908 5.91666,-4.35439 7.24624,-10.37077 7.57865,-15.82207 0.66479,-10.96908 -0.0997,-35.96528 -10.30429,-47.49943 0.56507,12.06599 -4.35439,23.26774 -11.235,26.82438 -4.1882,1.62874 -32.07625,-24.79676 -45.73775,-31.01258 -7.8113,-3.39045 -15.98825,2.36002 -22.53646,3.09129 -25.12917,-7.67836 -46.21307,-19.39865 -64.28879,-34.13047 z m 88.71992,41.94179 c 4.42087,6.94708 10.70316,12.26542 19.97702,18.28179 -6.44849,0.96395 -21.87169,-2.22705 -25.8272,-7.97752 -1.82817,-2.62592 2.36002,-7.08003 5.85018,-10.30427 z m -38.39178,55.27751 c -4.78651,2.06085 -9.70597,3.62312 -14.55896,4.75326 -0.79776,1.19663 -1.52903,2.36002 -2.22706,3.49017 4.91946,1.7617 10.47049,2.32677 14.65868,0.9307 1.09691,-3.25748 1.82818,-6.41524 2.12734,-9.17413 z m -22.60295,6.34876 -3.39045,0.4986 c -10.57353,12.16571 -20.57534,34.3033 -16.0348,50.49101 h 12.00949 c -3.69626,-12.53134 -5.49452,-28.95172 7.41576,-50.98961 z m 2.82536,7.14653 c -1.96114,3.78932 -3.45692,7.34596 -4.58706,10.66992 4.2879,2.22706 9.67273,2.95833 14.89135,2.72565 1.52903,-3.49015 3.25749,-7.24624 4.85299,-11.0688 -5.11891,0.59832 -10.43724,-0.46535 -15.15728,-2.32677 z m 37.02895,2.19382 c -3.98875,3.49016 -8.37639,6.74764 -12.93021,9.83893 2.32677,11.30147 11.10204,21.07392 24.56409,31.81033 h 27.68862 c -19.01307,-10.57021 -31.4447,-24.36465 -39.3225,-41.64926 z m -43.21152,14.35952 c -0.83099,3.92227 -1.09691,7.5454 -0.99719,10.93583 12.39839,4.72004 20.77477,4.48736 32.40864,1.36283 -2.39325,-3.42368 -4.32115,-6.98033 -5.61749,-10.7364 -10.86937,3.12453 -18.41476,1.89466 -25.79396,-1.56226 z m 35.43345,17.41757 c -12.6643,3.62312 -22.86886,4.38762 -35.73261,0.0997 0.59832,3.45691 1.49578,6.68116 2.49298,9.77245 h 43.24477 c -3.75608,-3.25748 -7.11329,-6.51497 -10.00514,-9.87217 z"
   fill="#ffffff"
   fill-opacity="1"
   id="path907"
   style="stroke-width:0.332396" /><path
   d="m 257.6321,276.79248 c -27.31581,0 -77.66213,52.33964 -57.59474,100.93092 2.6846,8.49005 9.33905,16.91298 16.4868,25.87283 8.18804,10.2686 17.31567,21.20835 23.054,32.51723 h 6.8793 c -6.07391,-13.35589 -16.27539,-25.47015 -25.0339,-36.44345 -9.19476,-11.51023 -16.35258,-21.8795 -16.35258,-29.49705 0.0336,-3.05373 0.74834,-6.07391 1.85574,-8.82563 7.71822,-20.60431 38.25555,-40.16834 49.83289,-45.30264 l 1.20807,-0.67114 1.30875,0.43624 c 20.43652,7.01352 43.38986,22.38286 51.67855,45.53754 1.37586,3.92623 1.9799,6.04036 1.87923,9.16121 -0.16779,5.30208 -8.22159,18.35595 -18.45663,29.7655 -9.76523,10.87263 -20.93989,22.71844 -26.84601,35.80586 h 6.8793 c 5.63766,-10.80552 15.50356,-21.4768 24.59764,-31.61117 7.78535,-8.59072 15.20156,-16.77875 18.42308,-25.10101 17.75192,-41.61131 -33.28905,-102.57524 -59.79949,-102.57524 z m 0.26847,45.46036 c -12.98676,7.21486 -28.55744,17.51701 -38.15488,29.59772 3.25507,27.85273 19.79892,49.02752 39.69852,49.02752 19.86604,0 36.34278,-21.04056 39.66498,-48.75906 -9.69812,-14.12771 -26.17486,-24.46342 -41.20862,-29.86618 z m -19.56403,27.85273 h 0.80538 c 4.39604,0.0336 8.75851,0.90605 13.12099,2.48325 -5.63766,13.62436 -19.79893,14.09416 -26.20841,0 4.09401,-1.61076 8.18803,-2.41613 12.28204,-2.48325 z m 41.91332,0 c 4.36249,-0.0336 8.72496,0.77182 13.121,2.48325 -6.44305,14.09416 -20.57076,13.62436 -26.24198,0 4.39604,-1.5772 8.75851,-2.4497 13.12098,-2.48325 z"
   fill="#ffffff"
   fill-opacity="1"
   id="path921"
   style="stroke-width:0.335575" /></g>
<g
   id="g10"
   inkscape:label="g10"
   style="display:inline">
</g>
<g
   id="g12">
</g>
<g
   id="g14">
</g>
<g
   id="g16">
</g>
<g
   id="g18">
</g>
<g
   id="g20">
</g>
<g
   id="g22">
</g>
<g
   id="g24">
</g>
<g
   id="g26">
</g>
<g
   id="g28">
</g>
<g
   id="g30">
</g>
<g
   id="g32">
</g>
<g
   id="g34">
</g>
<g
   id="g36">
</g>
<g
   id="g38">
</g>
</svg>
