<?xml version="1.0" encoding="UTF-8" standalone="no"?>
<svg
   xmlns:dc="http://purl.org/dc/elements/1.1/"
   xmlns:cc="http://creativecommons.org/ns#"
   xmlns:rdf="http://www.w3.org/1999/02/22-rdf-syntax-ns#"
   xmlns:svg="http://www.w3.org/2000/svg"
   xmlns="http://www.w3.org/2000/svg"
   xmlns:sodipodi="http://sodipodi.sourceforge.net/DTD/sodipodi-0.dtd"
   xmlns:inkscape="http://www.inkscape.org/namespaces/inkscape"
   version="1.1"
   id="Capa_1"
   x="0px"
   y="0px"
   viewBox="0 0 510.99 510.99"
   style="enable-background:new 0 0 510.99 510.99;"
   xml:space="preserve"
   sodipodi:docname="empty-carousel-solid2.svg"
   inkscape:version="1.0.1 (3bc2e813f5, 2020-09-07)"><metadata
   id="metadata45"><rdf:RDF><cc:Work
       rdf:about=""><dc:format>image/svg+xml</dc:format><dc:type
         rdf:resource="http://purl.org/dc/dcmitype/StillImage" /><dc:title /></cc:Work></rdf:RDF></metadata><defs
   id="defs43" /><sodipodi:namedview
   pagecolor="#000000"
   bordercolor="#666666"
   borderopacity="1"
   objecttolerance="10"
   gridtolerance="10"
   guidetolerance="10"
   inkscape:pageopacity="0.48627451"
   inkscape:pageshadow="2"
   inkscape:window-width="1826"
   inkscape:window-height="1057"
   id="namedview41"
   showgrid="false"
   inkscape:pagecheckerboard="false"
   inkscape:zoom="1.217742"
   inkscape:cx="157.16762"
   inkscape:cy="295.72815"
   inkscape:window-x="86"
   inkscape:window-y="-8"
   inkscape:window-maximized="1"
   inkscape:current-layer="g8"
   inkscape:document-rotation="0" />
<g
   id="g8"
   style="display:inline">
	<path
   d="M 450.362,445.41 H 264.556 c 0,0 -3.93867,-0.027 -8.08067,-0.027 -4.142,0 -6.91933,0.027 -6.91933,0.027 H 63.751 c -12.958,0 -23.5,10.542 -23.5,23.5 v 15.831 c 0,4.142 3.358,7.5 7.5,7.5 h 418.611 c 4.142,0 7.5,-3.358 7.5,-7.5 V 468.91 c 0,-12.958 -10.542,-23.5 -23.5,-23.5 z"
   id="path2"
   inkscape:label="base"
   style="fill:#ffffff;fill-opacity:1"
   sodipodi:nodetypes="scscssssssss" />
	
	<path
   d="m 454.138,266.523 c 13.55646,-0.10138 35.826,-19.881 35.826,-40.9 v -9.314 c 0,-11.176 -6.638,-21.242 -16.91,-25.645 L 298.29,115.765 c -10.772,-4.616 -22.195,-7.331 -33.733,-8.152 V 82.05 h 81.052 c 3.034,0 5.768,-1.827 6.929,-4.63 1.161,-2.803 0.519,-6.028 -1.626,-8.173 L 332.064,50.4 350.911,31.553 c 2.145,-2.145 2.787,-5.371 1.626,-8.173 -1.161,-2.803 -3.896,-4.63 -6.929,-4.63 h -88.552 c -4.142,0 -7.5,3.358 -7.5,7.5 v 81.364 c -11.538,0.821 -22.961,3.536 -33.733,8.152 L 41.061,190.663 c -10.272,4.403 -16.91,14.469 -16.91,25.645 v 9.314 c 0,21.019 15.737,38.984 35.826,40.9 4.214,0.402 8.423,0.125 12.475,-0.776 l 15,-6.041 c 0,-0.253 -0.013,-0.504 -0.038,-0.751 1.085,-0.799 2.133,-1.653 3.137,-2.566 2.064,-1.876 3.908,-3.952 5.513,-6.185 7.218,9.987 18.953,16.504 32.189,16.504 13.243,0 24.984,-6.524 32.201,-16.521 7.217,9.997 18.958,16.521 32.201,16.521 13.243,0 24.984,-6.524 32.201,-16.521 5.84,8.091 14.645,13.899 24.813,15.821 -0.068,0.407 -0.112,0.823 -0.112,1.25 h 15 c 0,-0.427 -0.044,-0.843 -0.112,-1.25 10.168,-1.922 18.973,-7.73 24.813,-15.821 7.216,9.997 18.957,16.521 32.201,16.521 13.243,0 24.984,-6.524 32.201,-16.521 7.216,9.996 18.958,16.521 32.201,16.521 13.236,0 24.972,-6.517 32.189,-16.504 6.94275,9.82902 20.23266,16.29483 36.088,16.32 z m -36.077,-47.017 c -4.142,0 -7.5,3.358 -7.5,7.5 0,13.62 -11.081,24.701 -24.701,24.701 -13.62,0 -24.701,-11.081 -24.701,-24.701 0,-4.142 -3.358,-7.5 -7.5,-7.5 -4.142,0 -7.5,3.358 -7.5,7.5 0,13.62 -11.081,24.701 -24.701,24.701 -13.62,0 -24.701,-11.081 -24.701,-24.701 0,-4.142 -3.358,-7.5 -7.5,-7.5 -4.142,0 -7.5,3.358 -7.5,7.5 0,13.62 -11.081,24.701 -24.701,24.701 -13.62,0 -24.701,-11.081 -24.701,-24.701 0,-4.142 -3.358,-7.5 -7.5,-7.5 -4.142,0 -7.5,3.358 -7.5,7.5 0,13.62 -11.081,24.701 -24.701,24.701 -13.62,0 -24.701,-11.081 -24.701,-24.701 0,-4.142 -3.358,-7.5 -7.5,-7.5 -4.142,0 -7.5,3.358 -7.5,7.5 0,13.62 -11.081,24.701 -24.701,24.701 -13.62,0 -24.701,-11.081 -24.701,-24.701 0,-4.142 -3.358,-7.5 -7.5,-7.5 -4.142,0 -7.5,3.358 -7.5,7.5 0,6.944 -2.949,13.608 -8.091,18.283 -5.211,4.738 -11.985,6.974 -19.061,6.3 -12.477,-1.189 -22.25,-12.596 -22.25,-25.968 v -9.314 c 0,-2.12 0.524,-4.15 1.461,-5.952 h 432.891 c 0.937,1.802 1.461,3.832 1.461,5.952 v 9.314 c 0,13.372 -9.773,24.778 -22.25,25.968 -7.083,0.673 -13.849,-1.563 -19.061,-6.3 -5.142,-4.675 -8.091,-11.339 -8.091,-18.283 10e-4,-4.142 -3.357,-7.5 -7.499,-7.5 z"
   id="path6"
   sodipodi:nodetypes="cssccccssccscssscccssccscccscsccssccscsccssssssssssssssssssssssccssccsscccs"
   inkscape:label="carousel"
   style="display:inline;fill:#ffffff;fill-opacity:1" />
<rect
   style="opacity:0.997;fill:#ffffff;fill-opacity:1;fill-rule:evenodd;stroke:none;stroke-width:5.01201;stroke-opacity:1"
   id="rect935"
   width="14.544931"
   height="162.90623"
   x="249.89195"
   y="275.73178"
   ry="0" /></g>
<g
   id="g10"
   inkscape:label="g10"
   style="display:inline">
</g>
<g
   id="g12">
</g>
<g
   id="g14">
</g>
<g
   id="g16">
</g>
<g
   id="g18">
</g>
<g
   id="g20">
</g>
<g
   id="g22">
</g>
<g
   id="g24">
</g>
<g
   id="g26">
</g>
<g
   id="g28">
</g>
<g
   id="g30">
</g>
<g
   id="g32">
</g>
<g
   id="g34">
</g>
<g
   id="g36">
</g>
<g
   id="g38">
</g>
</svg>
